<mxfile host="app.diagrams.net" agent="Mozilla/5.0 (Windows NT 10.0; Win64; x64) AppleWebKit/537.36 (KHTML, like Gecko) Chrome/140.0.0.0 Safari/537.36 Edg/140.0.0.0" version="28.2.5">
  <diagram name="Page-1" id="_tRE6HCRzusyWsLh6r1e">
    <mxGraphModel dx="899" dy="496" grid="1" gridSize="10" guides="1" tooltips="1" connect="1" arrows="1" fold="1" page="1" pageScale="1" pageWidth="850" pageHeight="1100" math="0" shadow="0">
      <root>
        <mxCell id="0" />
        <mxCell id="1" parent="0" />
        <mxCell id="9dAQjAFSqnwz1QpxDqAc-3" value="MainWindow (UI)" style="swimlane;fontStyle=1;align=center;verticalAlign=top;childLayout=stackLayout;horizontal=1;startSize=26;horizontalStack=0;resizeParent=1;resizeParentMax=0;resizeLast=0;collapsible=1;marginBottom=0;whiteSpace=wrap;html=1;fillColor=#0050ef;fontColor=#ffffff;strokeColor=#001DBC;" vertex="1" parent="1">
          <mxGeometry x="293" y="50" width="265" height="180" as="geometry" />
        </mxCell>
        <mxCell id="9dAQjAFSqnwz1QpxDqAc-4" value="- vaultManager: vaultManager*&lt;div&gt;- ui: ui::MainWindow&lt;/div&gt;" style="text;strokeColor=none;fillColor=none;align=left;verticalAlign=top;spacingLeft=4;spacingRight=4;overflow=hidden;rotatable=0;points=[[0,0.5],[1,0.5]];portConstraint=eastwest;whiteSpace=wrap;html=1;" vertex="1" parent="9dAQjAFSqnwz1QpxDqAc-3">
          <mxGeometry y="26" width="265" height="44" as="geometry" />
        </mxCell>
        <mxCell id="9dAQjAFSqnwz1QpxDqAc-5" value="" style="line;strokeWidth=1;fillColor=none;align=left;verticalAlign=middle;spacingTop=-1;spacingLeft=3;spacingRight=3;rotatable=0;labelPosition=right;points=[];portConstraint=eastwest;strokeColor=inherit;" vertex="1" parent="9dAQjAFSqnwz1QpxDqAc-3">
          <mxGeometry y="70" width="265" height="8" as="geometry" />
        </mxCell>
        <mxCell id="9dAQjAFSqnwz1QpxDqAc-6" value="+ logingEntry(): void&lt;div&gt;+ displayEntry(): void&lt;div&gt;+ searchEntry(): void&lt;/div&gt;&lt;div&gt;+ addEntry(): void&lt;br&gt;&lt;div&gt;+ deleteEntry(): void&lt;/div&gt;&lt;/div&gt;&lt;/div&gt;" style="text;strokeColor=none;fillColor=none;align=left;verticalAlign=top;spacingLeft=4;spacingRight=4;overflow=hidden;rotatable=0;points=[[0,0.5],[1,0.5]];portConstraint=eastwest;whiteSpace=wrap;html=1;" vertex="1" parent="9dAQjAFSqnwz1QpxDqAc-3">
          <mxGeometry y="78" width="265" height="102" as="geometry" />
        </mxCell>
      </root>
    </mxGraphModel>
  </diagram>
</mxfile>
